<svg version="1.1" viewBox="0.0 0.0 457.4671916010499 100.0" fill="none" stroke="none" stroke-linecap="square" stroke-miterlimit="10" xmlns:xlink="http://www.w3.org/1999/xlink" xmlns="http://www.w3.org/2000/svg"><clipPath id="p.0"><path d="m0 0l457.4672 0l0 100.0l-457.4672 0l0 -100.0z" clip-rule="nonzero"/></clipPath><g clip-path="url(#p.0)"><path fill="#000000" fill-opacity="0.0" d="m0 0l457.4672 0l0 100.0l-457.4672 0z" fill-rule="evenodd"/><path fill="#cfe2f3" fill-opacity="0.5588" d="m5.9737535 36.1916l447.52756 0l0 41.92126l-447.52756 0z" fill-rule="evenodd"/><path fill="#000000" fill-opacity="0.0" d="m5.9737535 32.496063l478.3622 0l0 41.921257l-478.3622 0z" fill-rule="evenodd"/><path fill="#000000" d="m27.614378 57.473564q0 3.546875 -1.46875 5.421875q-1.453125 1.875 -4.28125 1.875q-2.78125 0 -4.265625 -1.84375q-1.46875 -1.84375 -1.515625 -5.265625l0 -3.140625q0 -3.578125 1.484375 -5.421875q1.484375 -1.859375 4.265625 -1.859375q2.796875 0 4.265625 1.84375q1.484375 1.828125 1.515625 5.25l0 3.140625zm-3.375 -3.4375q0 -2.125 -0.59375 -3.09375q-0.578125 -0.96875 -1.796875 -0.96875q-1.203125 0 -1.78125 0.921875q-0.5625 0.921875 -0.59375 2.875l0 4.15625q0 2.078125 0.5625 3.09375q0.578125 1.015625 1.828125 1.015625q1.25 0 1.796875 -0.96875q0.546875 -0.96875 0.578125 -2.984375l0 -4.046875zm14.558596 13.671875l-2.046875 0l0 -20.234375l2.046875 0l0 20.234375zm14.09375 -12.0625l2.140625 -3.796875l3.625 0l-3.609375 6.21875l3.75 6.46875l-3.625 0l-2.265625 -3.984375l-2.25 3.984375l-3.640625 0l3.765625 -6.46875l-3.609375 -6.21875l3.640625 0l2.078125 3.796875zm12.2109375 0l2.140625 -3.796875l3.625 0l-3.609375 6.21875l3.75 6.46875l-3.625 0l-2.265625 -3.984375l-2.25 3.984375l-3.640625 0l3.765625 -6.46875l-3.609375 -6.21875l3.640625 0l2.078125 3.796875zm12.2109375 0l2.140625 -3.796875l3.625 0l-3.609375 6.21875l3.75 6.46875l-3.625 0l-2.265625 -3.984375l-2.25 3.984375l-3.640625 0l3.765625 -6.46875l-3.609375 -6.21875l3.640625 0l2.078125 3.796875zm12.2109375 0l2.140625 -3.796875l3.625 0l-3.609375 6.21875l3.75 6.46875l-3.625 0l-2.265625 -3.984375l-2.25 3.984375l-3.640625 0l3.765625 -6.46875l-3.609375 -6.21875l3.640625 0l2.078125 3.796875zm12.2109375 0l2.140625 -3.796875l3.625 0l-3.609375 6.21875l3.75 6.46875l-3.625 0l-2.265625 -3.984375l-2.25 3.984375l-3.640625 0l3.765625 -6.46875l-3.609375 -6.21875l3.640625 0l2.078125 3.796875zm12.2109375 0l2.140625 -3.796875l3.625 0l-3.609375 6.21875l3.75 6.46875l-3.625 0l-2.265625 -3.984375l-2.25 3.984375l-3.640625 0l3.765625 -6.46875l-3.609375 -6.21875l3.640625 0l2.078125 3.796875zm12.2109375 0l2.140625 -3.796875l3.625 0l-3.609375 6.21875l3.75 6.46875l-3.625 0l-2.265625 -3.984375l-2.25 3.984375l-3.640625 0l3.765625 -6.46875l-3.609375 -6.21875l3.640625 0l2.078125 3.796875zm12.2109375 0l2.140625 -3.796875l3.625 0l-3.609375 6.21875l3.75 6.46875l-3.625 0l-2.265625 -3.984375l-2.25 3.984375l-3.640625 0l3.765625 -6.46875l-3.609375 -6.21875l3.640625 0l2.078125 3.796875zm16.140625 12.0625l-2.046875 0l0 -20.234375l2.046875 0l0 20.234375zm14.09375 -12.0625l2.140625 -3.796875l3.625 0l-3.609375 6.21875l3.75 6.46875l-3.625 0l-2.265625 -3.984375l-2.25 3.984375l-3.640625 0l3.765625 -6.46875l-3.609375 -6.21875l3.640625 0l2.078125 3.796875zm12.2109375 0l2.140625 -3.796875l3.625 0l-3.609375 6.21875l3.75 6.46875l-3.625 0l-2.265625 -3.984375l-2.25 3.984375l-3.640625 0l3.765625 -6.46875l-3.609375 -6.21875l3.640625 0l2.078125 3.796875zm12.2109375 0l2.140625 -3.796875l3.625 0l-3.609375 6.21875l3.75 6.46875l-3.625 0l-2.265625 -3.984375l-2.25 3.984375l-3.640625 0l3.765625 -6.46875l-3.609375 -6.21875l3.640625 0l2.078125 3.796875zm12.2109375 0l2.140625 -3.796875l3.625 0l-3.609375 6.21875l3.75 6.46875l-3.625 0l-2.265625 -3.984375l-2.25 3.984375l-3.640625 0l3.765625 -6.46875l-3.609375 -6.21875l3.640625 0l2.078125 3.796875zm12.2109375 0l2.140625 -3.796875l3.625 0l-3.609375 6.21875l3.75 6.46875l-3.625 0l-2.265625 -3.984375l-2.25 3.984375l-3.640625 0l3.765625 -6.46875l-3.609375 -6.21875l3.640625 0l2.078125 3.796875zm12.2109375 0l2.140625 -3.796875l3.625 0l-3.609375 6.21875l3.75 6.46875l-3.625 0l-2.265625 -3.984375l-2.25 3.984375l-3.640625 0l3.765625 -6.46875l-3.609375 -6.21875l3.640625 0l2.078125 3.796875zm12.2109375 0l2.140625 -3.796875l3.625 0l-3.609375 6.21875l3.75 6.46875l-3.625 0l-2.265625 -3.984375l-2.25 3.984375l-3.640625 0l3.765625 -6.46875l-3.609375 -6.21875l3.640625 0l2.078125 3.796875zm12.2109375 0l2.140625 -3.796875l3.625 0l-3.609375 6.21875l3.75 6.46875l-3.625 0l-2.265625 -3.984375l-2.25 3.984375l-3.640625 0l3.765625 -6.46875l-3.609375 -6.21875l3.640625 0l2.078125 3.796875zm12.2109375 0l2.140625 -3.796875l3.625 0l-3.609375 6.21875l3.75 6.46875l-3.625 0l-2.265625 -3.984375l-2.25 3.984375l-3.640625 0l3.765625 -6.46875l-3.609375 -6.21875l3.640625 0l2.078125 3.796875zm12.2109375 0l2.140625 -3.796875l3.625 0l-3.609375 6.21875l3.75 6.46875l-3.625 0l-2.265625 -3.984375l-2.25 3.984375l-3.640625 0l3.765625 -6.46875l-3.609375 -6.21875l3.640625 0l2.078125 3.796875zm12.2109375 0l2.140625 -3.796875l3.625 0l-3.609375 6.21875l3.75 6.46875l-3.625 0l-2.265625 -3.984375l-2.25 3.984375l-3.640625 0l3.765625 -6.46875l-3.609375 -6.21875l3.640625 0l2.078125 3.796875zm12.2109375 0l2.140625 -3.796875l3.625 0l-3.609375 6.21875l3.75 6.46875l-3.625 0l-2.265625 -3.984375l-2.25 3.984375l-3.640625 0l3.765625 -6.46875l-3.609375 -6.21875l3.640625 0l2.078125 3.796875zm12.2109375 0l2.140625 -3.796875l3.625 0l-3.609375 6.21875l3.75 6.46875l-3.625 0l-2.265625 -3.984375l-2.25 3.984375l-3.640625 0l3.765625 -6.46875l-3.609375 -6.21875l3.640625 0l2.078125 3.796875zm12.2109375 0l2.140625 -3.796875l3.625 0l-3.609375 6.21875l3.75 6.46875l-3.625 0l-2.265625 -3.984375l-2.25 3.984375l-3.640625 0l3.765625 -6.46875l-3.609375 -6.21875l3.640625 0l2.078125 3.796875zm12.2109375 0l2.140625 -3.796875l3.625 0l-3.609375 6.21875l3.75 6.46875l-3.625 0l-2.265625 -3.984375l-2.25 3.984375l-3.640625 0l3.765625 -6.46875l-3.609375 -6.21875l3.640625 0l2.078125 3.796875zm12.2109375 0l2.140625 -3.796875l3.625 0l-3.609375 6.21875l3.75 6.46875l-3.625 0l-2.265625 -3.984375l-2.25 3.984375l-3.640625 0l3.765625 -6.46875l-3.609375 -6.21875l3.640625 0l2.078125 3.796875zm12.2109375 0l2.140625 -3.796875l3.625 0l-3.609375 6.21875l3.75 6.46875l-3.625 0l-2.265625 -3.984375l-2.25 3.984375l-3.640625 0l3.765625 -6.46875l-3.609375 -6.21875l3.640625 0l2.078125 3.796875zm12.2109375 0l2.140625 -3.796875l3.625 0l-3.609375 6.21875l3.75 6.46875l-3.625 0l-2.265625 -3.984375l-2.25 3.984375l-3.640625 0l3.765625 -6.46875l-3.609375 -6.21875l3.640625 0l2.078125 3.796875zm12.2109375 0l2.140625 -3.796875l3.625 0l-3.609375 6.21875l3.75 6.46875l-3.625 0l-2.265625 -3.984375l-2.25 3.984375l-3.640625 0l3.765625 -6.46875l-3.609375 -6.21875l3.640625 0l2.078125 3.796875zm12.2109375 0l2.140625 -3.796875l3.625 0l-3.609375 6.21875l3.75 6.46875l-3.625 0l-2.265625 -3.984375l-2.25 3.984375l-3.640625 0l3.765625 -6.46875l-3.609375 -6.21875l3.640625 0l2.078125 3.796875zm12.2109375 0l2.140625 -3.796875l3.625 0l-3.609375 6.21875l3.75 6.46875l-3.625 0l-2.265625 -3.984375l-2.25 3.984375l-3.640625 0l3.765625 -6.46875l-3.609375 -6.21875l3.640625 0l2.078125 3.796875zm12.2109375 0l2.140625 -3.796875l3.625 0l-3.609375 6.21875l3.75 6.46875l-3.625 0l-2.265625 -3.984375l-2.25 3.984375l-3.640625 0l3.765625 -6.46875l-3.609375 -6.21875l3.640625 0l2.078125 3.796875zm12.2109375 0l2.140625 -3.796875l3.625 0l-3.609375 6.21875l3.75 6.46875l-3.625 0l-2.265625 -3.984375l-2.25 3.984375l-3.640625 0l3.765625 -6.46875l-3.609375 -6.21875l3.640625 0l2.078125 3.796875z" fill-rule="nonzero"/><path fill="#000000" fill-opacity="0.0" d="m0 8.9632545E-4l720.0315 0l0 30.015747l-720.0315 0z" fill-rule="evenodd"/><path fill="#000000" d="m14.96875 18.327145l0 2.84375l-0.296875 0q-0.34375 -1.34375 -0.890625 -1.8125q-0.53125 -0.484375 -1.375 -0.484375q-0.640625 0 -1.03125 0.34375q-0.390625 0.328125 -0.390625 0.734375q0 0.515625 0.296875 0.875q0.28125 0.375 1.140625 0.796875l1.328125 0.640625q1.859375 0.90625 1.859375 2.375q0 1.140625 -0.875 1.84375q-0.859375 0.6875 -1.921875 0.6875q-0.765625 0 -1.75 -0.265625q-0.296875 -0.09375 -0.484375 -0.09375q-0.21875 0 -0.328125 0.234375l-0.296875 0l0 -2.96875l0.296875 0q0.25 1.265625 0.96875 1.921875q0.71875 0.640625 1.609375 0.640625q0.640625 0 1.03125 -0.359375q0.390625 -0.375 0.390625 -0.90625q0 -0.625 -0.4375 -1.046875q-0.4375 -0.4375 -1.765625 -1.09375q-1.3125 -0.65625 -1.71875 -1.171875q-0.421875 -0.53125 -0.421875 -1.3125q0 -1.03125 0.703125 -1.71875q0.71875 -0.703125 1.828125 -0.703125q0.5 0 1.203125 0.21875q0.453125 0.125 0.609375 0.125q0.15625 0 0.234375 -0.0625q0.078125 -0.0625 0.1875 -0.28125l0.296875 0zm3.9946442 -4.359375q0.390625 0 0.65625 0.265625q0.265625 0.265625 0.265625 0.65625q0 0.375 -0.265625 0.65625q-0.265625 0.265625 -0.65625 0.265625q-0.375 0 -0.65625 -0.265625q-0.265625 -0.28125 -0.265625 -0.65625q0 -0.390625 0.265625 -0.65625q0.265625 -0.265625 0.65625 -0.265625zm0.765625 4.359375l0 6.703125q0 0.78125 0.109375 1.046875q0.109375 0.265625 0.328125 0.390625q0.234375 0.125 0.828125 0.125l0 0.328125l-4.0625 0l0 -0.328125q0.609375 0 0.8125 -0.109375q0.21875 -0.125 0.34375 -0.390625q0.125 -0.28125 0.125 -1.0625l0 -3.203125q0 -1.359375 -0.078125 -1.765625q-0.078125 -0.296875 -0.21875 -0.40625q-0.125 -0.109375 -0.359375 -0.109375q-0.265625 0 -0.625 0.140625l-0.125 -0.328125l2.515625 -1.03125l0.40625 0zm4.527054 5.546875q-0.765625 -0.375 -1.171875 -1.03125q-0.40625 -0.671875 -0.40625 -1.484375q0 -1.25 0.921875 -2.140625q0.9375 -0.890625 2.40625 -0.890625q1.1875 0 2.0625 0.59375l1.765625 0q0.390625 0 0.453125 0.015625q0.0625 0.015625 0.09375 0.078125q0.046875 0.078125 0.046875 0.296875q0 0.234375 -0.03125 0.328125q-0.03125 0.046875 -0.109375 0.078125q-0.0625 0.015625 -0.453125 0.015625l-1.078125 0q0.5 0.65625 0.5 1.671875q0 1.171875 -0.890625 2.0q-0.890625 0.828125 -2.390625 0.828125q-0.625 0 -1.265625 -0.1875q-0.40625 0.359375 -0.546875 0.625q-0.140625 0.25 -0.140625 0.421875q0 0.15625 0.140625 0.3125q0.15625 0.140625 0.59375 0.203125q0.265625 0.03125 1.28125 0.0625q1.875 0.046875 2.421875 0.125q0.859375 0.125 1.359375 0.640625q0.5 0.5 0.5 1.25q0 1.03125 -0.953125 1.9375q-1.421875 1.328125 -3.71875 1.328125q-1.75 0 -2.96875 -0.796875q-0.671875 -0.453125 -0.671875 -0.953125q0 -0.21875 0.09375 -0.4375q0.15625 -0.328125 0.640625 -0.9375q0.0625 -0.078125 0.921875 -0.984375q-0.46875 -0.28125 -0.671875 -0.5q-0.1875 -0.21875 -0.1875 -0.5q0 -0.328125 0.25 -0.75q0.265625 -0.4375 1.203125 -1.21875zm1.59375 -5.109375q-0.6875 0 -1.140625 0.546875q-0.453125 0.53125 -0.453125 1.640625q0 1.4375 0.625 2.234375q0.46875 0.59375 1.203125 0.59375q0.6875 0 1.125 -0.515625q0.453125 -0.515625 0.453125 -1.625q0 -1.453125 -0.625 -2.265625q-0.46875 -0.609375 -1.1875 -0.609375zm-1.6875 8.15625q-0.421875 0.46875 -0.640625 0.859375q-0.21875 0.40625 -0.21875 0.75q0 0.4375 0.53125 0.765625q0.90625 0.5625 2.625 0.5625q1.640625 0 2.421875 -0.578125q0.78125 -0.578125 0.78125 -1.234375q0 -0.484375 -0.46875 -0.671875q-0.46875 -0.203125 -1.875 -0.25q-2.046875 -0.046875 -3.15625 -0.203125zm9.625 -6.828125q1.46875 -1.765625 2.796875 -1.765625q0.6875 0 1.171875 0.34375q0.5 0.34375 0.78125 1.125q0.203125 0.546875 0.203125 1.671875l0 3.5625q0 0.796875 0.125 1.078125q0.109375 0.234375 0.328125 0.359375q0.21875 0.125 0.828125 0.125l0 0.328125l-4.125 0l0 -0.328125l0.171875 0q0.578125 0 0.8125 -0.171875q0.234375 -0.1875 0.328125 -0.53125q0.03125 -0.140625 0.03125 -0.859375l0 -3.40625q0 -1.140625 -0.296875 -1.65625q-0.296875 -0.515625 -1.0 -0.515625q-1.078125 0 -2.15625 1.1875l0 4.390625q0 0.859375 0.09375 1.046875q0.140625 0.265625 0.359375 0.390625q0.21875 0.125 0.90625 0.125l0 0.328125l-4.125 0l0 -0.328125l0.171875 0q0.640625 0 0.859375 -0.3125q0.234375 -0.328125 0.234375 -1.25l0 -3.09375q0 -1.5 -0.078125 -1.828125q-0.0625 -0.328125 -0.203125 -0.4375q-0.140625 -0.125 -0.375 -0.125q-0.265625 0 -0.609375 0.140625l-0.140625 -0.328125l2.515625 -1.03125l0.390625 0l0 1.765625zm31.617188 1.625q0 1.859375 0.90625 2.921875q0.90625 1.046875 2.140625 1.046875q0.8125 0 1.421875 -0.4375q0.609375 -0.453125 1.015625 -1.546875l0.28125 0.171875q-0.1875 1.25 -1.109375 2.28125q-0.921875 1.015625 -2.296875 1.015625q-1.515625 0 -2.59375 -1.171875q-1.0625 -1.171875 -1.0625 -3.140625q0 -2.140625 1.09375 -3.328125q1.109375 -1.203125 2.765625 -1.203125q1.40625 0 2.296875 0.921875q0.90625 0.921875 0.90625 2.46875l-5.765625 0zm0 -0.53125l3.859375 0q-0.046875 -0.796875 -0.1875 -1.125q-0.234375 -0.515625 -0.6875 -0.796875q-0.4375 -0.296875 -0.9375 -0.296875q-0.75 0 -1.34375 0.59375q-0.59375 0.578125 -0.703125 1.625zm6.546158 -2.609375l3.921875 0l0 0.34375q-0.375 0 -0.53125 0.125q-0.140625 0.125 -0.140625 0.328125q0 0.21875 0.3125 0.671875q0.109375 0.15625 0.3125 0.46875l0.578125 0.9375l0.6875 -0.9375q0.65625 -0.90625 0.65625 -1.140625q0 -0.203125 -0.15625 -0.328125q-0.15625 -0.125 -0.5 -0.125l0 -0.34375l2.828125 0l0 0.34375q-0.453125 0.015625 -0.78125 0.234375q-0.4375 0.3125 -1.21875 1.359375l-1.140625 1.515625l2.078125 2.984375q0.765625 1.109375 1.09375 1.328125q0.328125 0.21875 0.84375 0.25l0 0.328125l-3.921875 0l0 -0.328125q0.40625 0 0.625 -0.1875q0.171875 -0.125 0.171875 -0.328125q0 -0.21875 -0.578125 -1.0625l-1.21875 -1.78125l-1.34375 1.78125q-0.609375 0.828125 -0.609375 0.984375q0 0.21875 0.203125 0.40625q0.203125 0.171875 0.609375 0.1875l0 0.328125l-2.71875 0l0 -0.328125q0.328125 -0.046875 0.578125 -0.234375q0.34375 -0.25 1.15625 -1.34375l1.75 -2.328125l-1.578125 -2.28125q-0.671875 -0.984375 -1.046875 -1.234375q-0.375 -0.25 -0.921875 -0.25l0 -0.34375zm9.0625 0.828125l2.5625 -1.03125l0.34375 0l0 1.9375q0.65625 -1.09375 1.296875 -1.53125q0.65625 -0.453125 1.375 -0.453125q1.265625 0 2.09375 0.984375q1.03125 1.203125 1.03125 3.140625q0 2.15625 -1.234375 3.5625q-1.015625 1.15625 -2.578125 1.15625q-0.671875 0 -1.15625 -0.1875q-0.359375 -0.140625 -0.828125 -0.546875l0 2.546875q0 0.859375 0.109375 1.078125q0.109375 0.234375 0.359375 0.375q0.265625 0.140625 0.953125 0.140625l0 0.328125l-4.375 0l0 -0.328125l0.21875 0q0.515625 0 0.859375 -0.1875q0.171875 -0.109375 0.265625 -0.328125q0.109375 -0.21875 0.109375 -1.140625l0 -7.890625q0 -0.8125 -0.078125 -1.015625q-0.078125 -0.21875 -0.234375 -0.328125q-0.15625 -0.109375 -0.4375 -0.109375q-0.21875 0 -0.546875 0.125l-0.109375 -0.296875zm2.90625 1.453125l0 3.109375q0 1.015625 0.09375 1.328125q0.125 0.53125 0.609375 0.9375q0.5 0.390625 1.265625 0.390625q0.90625 0 1.46875 -0.703125q0.734375 -0.9375 0.734375 -2.609375q0 -1.921875 -0.828125 -2.953125q-0.59375 -0.703125 -1.390625 -0.703125q-0.4375 0 -0.859375 0.21875q-0.328125 0.15625 -1.09375 0.984375zm11.109375 -2.53125q1.890625 0 3.03125 1.4375q0.984375 1.234375 0.984375 2.828125q0 1.125 -0.546875 2.28125q-0.53125 1.140625 -1.484375 1.71875q-0.9375 0.578125 -2.09375 0.578125q-1.890625 0 -3.0 -1.5q-0.9375 -1.265625 -0.9375 -2.84375q0 -1.140625 0.5625 -2.265625q0.578125 -1.140625 1.5 -1.6875q0.9375 -0.546875 1.984375 -0.546875zm-0.296875 0.59375q-0.46875 0 -0.96875 0.296875q-0.484375 0.28125 -0.78125 1.0q-0.296875 0.71875 -0.296875 1.84375q0 1.828125 0.71875 3.15625q0.71875 1.3125 1.90625 1.3125q0.890625 0 1.453125 -0.71875q0.578125 -0.734375 0.578125 -2.515625q0 -2.21875 -0.953125 -3.5q-0.640625 -0.875 -1.65625 -0.875zm7.96875 1.171875q1.46875 -1.765625 2.796875 -1.765625q0.6875 0 1.171875 0.34375q0.5 0.34375 0.78125 1.125q0.203125 0.546875 0.203125 1.671875l0 3.5625q0 0.796875 0.125 1.078125q0.109375 0.234375 0.328125 0.359375q0.21875 0.125 0.828125 0.125l0 0.328125l-4.125 0l0 -0.328125l0.171875 0q0.578125 0 0.8125 -0.171875q0.234375 -0.1875 0.328125 -0.53125q0.03125 -0.140625 0.03125 -0.859375l0 -3.40625q0 -1.140625 -0.296875 -1.65625q-0.296875 -0.515625 -1.0 -0.515625q-1.078125 0 -2.15625 1.1875l0 4.390625q0 0.859375 0.09375 1.046875q0.140625 0.265625 0.359375 0.390625q0.21875 0.125 0.90625 0.125l0 0.328125l-4.125 0l0 -0.328125l0.171875 0q0.640625 0 0.859375 -0.3125q0.234375 -0.328125 0.234375 -1.25l0 -3.09375q0 -1.5 -0.078125 -1.828125q-0.0625 -0.328125 -0.203125 -0.4375q-0.140625 -0.125 -0.375 -0.125q-0.265625 0 -0.609375 0.140625l-0.140625 -0.328125l2.515625 -1.03125l0.390625 0l0 1.765625zm8.296875 1.625q0 1.859375 0.90625 2.921875q0.90625 1.046875 2.140625 1.046875q0.8125 0 1.421875 -0.4375q0.609375 -0.453125 1.015625 -1.546875l0.28125 0.171875q-0.1875 1.25 -1.109375 2.28125q-0.921875 1.015625 -2.296875 1.015625q-1.515625 0 -2.59375 -1.171875q-1.0625 -1.171875 -1.0625 -3.140625q0 -2.140625 1.09375 -3.328125q1.109375 -1.203125 2.765625 -1.203125q1.40625 0 2.296875 0.921875q0.90625 0.921875 0.90625 2.46875l-5.765625 0zm0 -0.53125l3.859375 0q-0.046875 -0.796875 -0.1875 -1.125q-0.234375 -0.515625 -0.6875 -0.796875q-0.4375 -0.296875 -0.9375 -0.296875q-0.75 0 -1.34375 0.59375q-0.59375 0.578125 -0.703125 1.625zm9.311783 -1.09375q1.46875 -1.765625 2.796875 -1.765625q0.6875 0 1.171875 0.34375q0.5 0.34375 0.78125 1.125q0.203125 0.546875 0.203125 1.671875l0 3.5625q0 0.796875 0.125 1.078125q0.109375 0.234375 0.328125 0.359375q0.21875 0.125 0.828125 0.125l0 0.328125l-4.125 0l0 -0.328125l0.171875 0q0.578125 0 0.8125 -0.171875q0.234375 -0.1875 0.328125 -0.53125q0.03125 -0.140625 0.03125 -0.859375l0 -3.40625q0 -1.140625 -0.296875 -1.65625q-0.296875 -0.515625 -1.0 -0.515625q-1.078125 0 -2.15625 1.1875l0 4.390625q0 0.859375 0.09375 1.046875q0.140625 0.265625 0.359375 0.390625q0.21875 0.125 0.90625 0.125l0 0.328125l-4.125 0l0 -0.328125l0.171875 0q0.640625 0 0.859375 -0.3125q0.234375 -0.328125 0.234375 -1.25l0 -3.09375q0 -1.5 -0.078125 -1.828125q-0.0625 -0.328125 -0.203125 -0.4375q-0.140625 -0.125 -0.375 -0.125q-0.265625 0 -0.609375 0.140625l-0.140625 -0.328125l2.515625 -1.03125l0.390625 0l0 1.765625zm9.3125 -4.265625l0 2.75l1.953125 0l0 0.640625l-1.953125 0l0 5.40625q0 0.8125 0.234375 1.09375q0.234375 0.28125 0.59375 0.28125q0.3125 0 0.59375 -0.1875q0.28125 -0.1875 0.4375 -0.546875l0.34375 0q-0.3125 0.890625 -0.90625 1.34375q-0.578125 0.453125 -1.1875 0.453125q-0.421875 0 -0.828125 -0.234375q-0.390625 -0.234375 -0.59375 -0.65625q-0.1875 -0.4375 -0.1875 -1.34375l0 -5.609375l-1.3125 0l0 -0.296875q0.5 -0.203125 1.015625 -0.6875q0.53125 -0.484375 0.9375 -1.125q0.203125 -0.359375 0.578125 -1.28125l0.28125 0zm145.94891 3.40625l0 5.484375q0 1.171875 0.25 1.46875q0.34375 0.40625 0.90625 0.40625l0.75 0l0 0.328125l-4.96875 0l0 -0.328125l0.359375 0q0.375 0 0.671875 -0.171875q0.296875 -0.1875 0.40625 -0.5q0.125 -0.3125 0.125 -1.203125l0 -5.484375l-1.625 0l0 -0.65625l1.625 0l0 -0.546875q0 -1.25 0.390625 -2.109375q0.40625 -0.875 1.234375 -1.40625q0.828125 -0.53125 1.859375 -0.53125q0.953125 0 1.75 0.625q0.53125 0.40625 0.53125 0.921875q0 0.265625 -0.234375 0.515625q-0.234375 0.234375 -0.515625 0.234375q-0.203125 0 -0.4375 -0.140625q-0.234375 -0.15625 -0.578125 -0.65625q-0.328125 -0.5 -0.609375 -0.671875q-0.28125 -0.171875 -0.640625 -0.171875q-0.40625 0 -0.703125 0.234375q-0.296875 0.21875 -0.421875 0.6875q-0.125 0.46875 -0.125 2.40625l0 0.609375l2.15625 0l0 0.65625l-2.15625 0zm5.400177 -0.90625l0 1.875q1.046875 -1.875 2.140625 -1.875q0.5 0 0.828125 0.3125q0.328125 0.296875 0.328125 0.703125q0 0.359375 -0.234375 0.609375q-0.234375 0.234375 -0.5625 0.234375q-0.328125 0 -0.71875 -0.3125q-0.390625 -0.3125 -0.578125 -0.3125q-0.171875 0 -0.359375 0.1875q-0.40625 0.359375 -0.84375 1.21875l0 4.0q0 0.703125 0.171875 1.046875q0.109375 0.25 0.40625 0.421875q0.3125 0.15625 0.875 0.15625l0 0.328125l-4.28125 0l0 -0.328125q0.640625 0 0.953125 -0.203125q0.234375 -0.140625 0.3125 -0.46875q0.046875 -0.140625 0.046875 -0.875l0 -3.234375q0 -1.453125 -0.0625 -1.734375q-0.046875 -0.28125 -0.21875 -0.40625q-0.15625 -0.125 -0.390625 -0.125q-0.28125 0 -0.640625 0.140625l-0.078125 -0.328125l2.515625 -1.03125l0.390625 0zm8.493927 7.390625q-1.28125 1.0 -1.609375 1.15625q-0.5 0.21875 -1.046875 0.21875q-0.875 0 -1.4375 -0.59375q-0.546875 -0.59375 -0.546875 -1.5625q0 -0.609375 0.265625 -1.046875q0.375 -0.625 1.296875 -1.171875q0.921875 -0.546875 3.078125 -1.328125l0 -0.328125q0 -1.25 -0.40625 -1.703125q-0.390625 -0.46875 -1.140625 -0.46875q-0.578125 0 -0.921875 0.3125q-0.34375 0.296875 -0.34375 0.703125l0.015625 0.53125q0 0.421875 -0.21875 0.65625q-0.203125 0.21875 -0.546875 0.21875q-0.34375 0 -0.5625 -0.234375q-0.203125 -0.234375 -0.203125 -0.65625q0 -0.78125 0.796875 -1.4375q0.8125 -0.65625 2.25 -0.65625q1.109375 0 1.828125 0.375q0.53125 0.28125 0.796875 0.890625q0.15625 0.390625 0.15625 1.59375l0 2.84375q0 1.1875 0.046875 1.453125q0.046875 0.265625 0.140625 0.359375q0.109375 0.09375 0.25 0.09375q0.140625 0 0.25 -0.0625q0.203125 -0.125 0.75 -0.671875l0 0.515625q-1.03125 1.359375 -1.953125 1.359375q-0.453125 0 -0.71875 -0.296875q-0.265625 -0.3125 -0.265625 -1.0625zm0 -0.59375l0 -3.171875q-1.375 0.546875 -1.78125 0.765625q-0.71875 0.40625 -1.03125 0.84375q-0.296875 0.4375 -0.296875 0.953125q0 0.65625 0.390625 1.09375q0.390625 0.421875 0.890625 0.421875q0.703125 0 1.828125 -0.90625zm10.639893 -1.375q-0.34375 1.65625 -1.328125 2.546875q-0.984375 0.875 -2.171875 0.875q-1.421875 0 -2.484375 -1.1875q-1.046875 -1.1875 -1.046875 -3.21875q0 -1.96875 1.171875 -3.203125q1.171875 -1.234375 2.8125 -1.234375q1.21875 0 2.015625 0.65625q0.796875 0.65625 0.796875 1.34375q0 0.359375 -0.234375 0.578125q-0.21875 0.203125 -0.609375 0.203125q-0.546875 0 -0.8125 -0.34375q-0.15625 -0.1875 -0.21875 -0.71875q-0.046875 -0.546875 -0.359375 -0.828125q-0.328125 -0.28125 -0.890625 -0.28125q-0.90625 0 -1.46875 0.671875q-0.734375 0.90625 -0.734375 2.359375q0 1.5 0.734375 2.640625q0.734375 1.140625 1.984375 1.140625q0.890625 0 1.609375 -0.609375q0.5 -0.421875 0.96875 -1.515625l0.265625 0.125zm3.6086426 -7.921875l0 2.75l1.953125 0l0 0.640625l-1.953125 0l0 5.40625q0 0.8125 0.234375 1.09375q0.234375 0.28125 0.59375 0.28125q0.3125 0 0.59375 -0.1875q0.28125 -0.1875 0.4375 -0.546875l0.34375 0q-0.3125 0.890625 -0.90625 1.34375q-0.578125 0.453125 -1.1875 0.453125q-0.421875 0 -0.828125 -0.234375q-0.390625 -0.234375 -0.59375 -0.65625q-0.1875 -0.4375 -0.1875 -1.34375l0 -5.609375l-1.3125 0l0 -0.296875q0.5 -0.203125 1.015625 -0.6875q0.53125 -0.484375 0.9375 -1.125q0.203125 -0.359375 0.578125 -1.28125l0.28125 0zm4.8864136 -1.859375q0.390625 0 0.65625 0.265625q0.265625 0.265625 0.265625 0.65625q0 0.375 -0.265625 0.65625q-0.265625 0.265625 -0.65625 0.265625q-0.375 0 -0.65625 -0.265625q-0.265625 -0.28125 -0.265625 -0.65625q0 -0.390625 0.265625 -0.65625q0.265625 -0.265625 0.65625 -0.265625zm0.765625 4.359375l0 6.703125q0 0.78125 0.109375 1.046875q0.109375 0.265625 0.328125 0.390625q0.234375 0.125 0.828125 0.125l0 0.328125l-4.0625 0l0 -0.328125q0.609375 0 0.8125 -0.109375q0.21875 -0.125 0.34375 -0.390625q0.125 -0.28125 0.125 -1.0625l0 -3.203125q0 -1.359375 -0.078125 -1.765625q-0.078125 -0.296875 -0.21875 -0.40625q-0.125 -0.109375 -0.359375 -0.109375q-0.265625 0 -0.625 0.140625l-0.125 -0.328125l2.515625 -1.03125l0.40625 0zm6.3864136 0q1.890625 0 3.03125 1.4375q0.984375 1.234375 0.984375 2.828125q0 1.125 -0.546875 2.28125q-0.53125 1.140625 -1.484375 1.71875q-0.9375 0.578125 -2.09375 0.578125q-1.890625 0 -3.0 -1.5q-0.9375 -1.265625 -0.9375 -2.84375q0 -1.140625 0.5625 -2.265625q0.578125 -1.140625 1.5 -1.6875q0.9375 -0.546875 1.984375 -0.546875zm-0.296875 0.59375q-0.46875 0 -0.96875 0.296875q-0.484375 0.28125 -0.78125 1.0q-0.296875 0.71875 -0.296875 1.84375q0 1.828125 0.71875 3.15625q0.71875 1.3125 1.90625 1.3125q0.890625 0 1.453125 -0.71875q0.578125 -0.734375 0.578125 -2.515625q0 -2.21875 -0.953125 -3.5q-0.640625 -0.875 -1.65625 -0.875zm7.96875 1.171875q1.46875 -1.765625 2.796875 -1.765625q0.6875 0 1.171875 0.34375q0.5 0.34375 0.78125 1.125q0.203125 0.546875 0.203125 1.671875l0 3.5625q0 0.796875 0.125 1.078125q0.109375 0.234375 0.328125 0.359375q0.21875 0.125 0.828125 0.125l0 0.328125l-4.125 0l0 -0.328125l0.171875 0q0.578125 0 0.8125 -0.171875q0.234375 -0.1875 0.328125 -0.53125q0.03125 -0.140625 0.03125 -0.859375l0 -3.40625q0 -1.140625 -0.296875 -1.65625q-0.296875 -0.515625 -1.0 -0.515625q-1.078125 0 -2.15625 1.1875l0 4.390625q0 0.859375 0.09375 1.046875q0.140625 0.265625 0.359375 0.390625q0.21875 0.125 0.90625 0.125l0 0.328125l-4.125 0l0 -0.328125l0.171875 0q0.640625 0 0.859375 -0.3125q0.234375 -0.328125 0.234375 -1.25l0 -3.09375q0 -1.5 -0.078125 -1.828125q-0.0625 -0.328125 -0.203125 -0.4375q-0.140625 -0.125 -0.375 -0.125q-0.265625 0 -0.609375 0.140625l-0.140625 -0.328125l2.515625 -1.03125l0.390625 0l0 1.765625z" fill-rule="nonzero"/></g></svg>